<svg width="20" height="20" viewBox="0 0 20 20" fill="none" xmlns="http://www.w3.org/2000/svg">
<g clip-path="url(#clip0_13487_62)">
<path d="M6.66719 10C6.66719 8.15913 8.15911 6.6664 9.99999 6.6664C11.8409 6.6664 13.3336 8.15913 13.3336 10C13.3336 11.8409 11.8409 13.3336 9.99999 13.3336C8.15911 13.3336 6.66719 11.8409 6.66719 10ZM4.86509 10C4.86509 12.836 7.16396 15.1349 9.99999 15.1349C12.836 15.1349 15.1349 12.836 15.1349 10C15.1349 7.16397 12.836 4.8651 9.99999 4.8651C7.16396 4.8651 4.86509 7.16397 4.86509 10ZM14.1381 4.66155C14.1381 5.32391 14.6753 5.86187 15.3384 5.86187C16.0008 5.86187 16.5388 5.32391 16.5388 4.66155C16.5388 3.99919 16.0016 3.46204 15.3384 3.46204C14.6753 3.46204 14.1381 3.99919 14.1381 4.66155ZM5.9596 18.1397C4.98464 18.0953 4.45475 17.933 4.10257 17.7956C3.63569 17.6139 3.30289 17.3974 2.95233 17.0477C2.60257 16.6979 2.38528 16.3651 2.20435 15.8982C2.06703 15.546 1.90467 15.0162 1.86024 14.0412C1.81178 12.9871 1.80209 12.6704 1.80209 10C1.80209 7.32956 1.81259 7.01373 1.86024 5.9588C1.90467 4.98384 2.06784 4.45477 2.20435 4.10178C2.38609 3.63489 2.60257 3.3021 2.95233 2.95153C3.30209 2.60178 3.63488 2.38449 4.10257 2.20355C4.45475 2.06624 4.98464 1.90388 5.9596 1.85945C7.01372 1.81099 7.33036 1.80129 9.99999 1.80129C12.6704 1.80129 12.9863 1.81179 14.0412 1.85945C15.0161 1.90388 15.5452 2.06704 15.8982 2.20355C16.3651 2.38449 16.6979 2.60178 17.0485 2.95153C17.3982 3.30129 17.6147 3.63489 17.7964 4.10178C17.9337 4.45396 18.0961 4.98384 18.1405 5.9588C18.189 7.01373 18.1987 7.32956 18.1987 10C18.1987 12.6696 18.189 12.9863 18.1405 14.0412C18.0961 15.0162 17.9329 15.546 17.7964 15.8982C17.6147 16.3651 17.3982 16.6979 17.0485 17.0477C16.6987 17.3974 16.3651 17.6139 15.8982 17.7956C15.546 17.933 15.0161 18.0953 14.0412 18.1397C12.9871 18.1882 12.6704 18.1979 9.99999 18.1979C7.33036 18.1979 7.01372 18.1882 5.9596 18.1397V18.1397ZM5.87721 0.0605816C4.81259 0.109047 4.08561 0.277868 3.4499 0.52504C2.79239 0.780291 2.23504 1.12278 1.6785 1.67851C1.12276 2.23425 0.780276 2.7916 0.525025 3.44992C0.277852 4.08562 0.109032 4.8126 0.0605663 5.87722C0.0112933 6.94346 -1.52588e-05 7.28433 -1.52588e-05 10C-1.52588e-05 12.7157 0.0112933 13.0565 0.0605663 14.1228C0.109032 15.1874 0.277852 15.9144 0.525025 16.5501C0.780276 17.2076 1.12196 17.7658 1.6785 18.3215C2.23423 18.8772 2.79158 19.2189 3.4499 19.475C4.08641 19.7221 4.81259 19.891 5.87721 19.9394C6.94425 19.9879 7.28431 20 9.99999 20C12.7165 20 13.0565 19.9887 14.1228 19.9394C15.1874 19.891 15.9144 19.7221 16.5501 19.475C17.2076 19.2189 17.7649 18.8772 18.3215 18.3215C18.8772 17.7658 19.2189 17.2076 19.4749 16.5501C19.7221 15.9144 19.8917 15.1874 19.9394 14.1228C19.9879 13.0557 19.9992 12.7157 19.9992 10C19.9992 7.28433 19.9879 6.94346 19.9394 5.87722C19.8909 4.8126 19.7221 4.08562 19.4749 3.44992C19.2189 2.79241 18.8772 2.23506 18.3215 1.67851C17.7657 1.12278 17.2076 0.780291 16.5509 0.52504C15.9144 0.277868 15.1874 0.108239 14.1236 0.0605816C13.0573 0.0121163 12.7165 0 10.0008 0C7.28431 0 6.94425 0.0113086 5.87721 0.0605816" fill="#333333"/>
</g>
<defs>
<clipPath id="clip0_13487_62">
<rect width="20" height="20" fill="white"/>
</clipPath>
</defs>
</svg>
