<svg width="20" height="21" viewBox="0 0 20 21" fill="none" xmlns="http://www.w3.org/2000/svg">
<g clip-path="url(#clip0_13441_1504)">
<path d="M0 3.29491C0 2.6215 0.225232 2.06594 0.675676 1.62824C1.12612 1.19053 1.71172 0.97168 2.43243 0.97168C3.14029 0.97168 3.71299 1.18715 4.15058 1.61814C4.60102 2.06259 4.82625 2.6417 4.82625 3.35551C4.82625 4.00198 4.60747 4.54068 4.16988 4.97167C3.71944 5.41612 3.12741 5.63834 2.39382 5.63834H2.37452C1.66666 5.63834 1.09396 5.41612 0.656371 4.97167C0.218784 4.52723 0 3.9683 0 3.29491ZM0.250965 20.9716V7.47672H4.53668V20.9716H0.250965ZM6.9112 20.9716H11.1969V13.4363C11.1969 12.9649 11.2484 12.6013 11.3514 12.3454C11.5315 11.8875 11.805 11.5003 12.1718 11.1838C12.5386 10.8673 12.9987 10.709 13.5521 10.709C14.9936 10.709 15.7143 11.7259 15.7143 13.7595V20.9716H20V13.2343C20 11.241 19.5496 9.72924 18.6486 8.69894C17.7477 7.66864 16.5573 7.15349 15.0772 7.15349C13.417 7.15349 12.1236 7.90096 11.1969 9.39591V9.43631H11.1776L11.1969 9.39591V7.47672H6.9112C6.93693 7.90769 6.94981 9.24775 6.94981 11.4969C6.94981 13.7461 6.93693 16.9043 6.9112 20.9716Z" fill="#4A60A1"/>
</g>
<defs>
<clipPath id="clip0_13441_1504">
<rect width="20" height="20" fill="white" transform="translate(0 0.97168)"/>
</clipPath>
</defs>
</svg>
