<svg width="24" height="25" viewBox="0 0 24 25" fill="none" xmlns="http://www.w3.org/2000/svg">
<path d="M12 13.7402C13.6569 13.7402 15 12.3971 15 10.7402C15 9.08338 13.6569 7.74023 12 7.74023C10.3431 7.74023 9 9.08338 9 10.7402C9 12.3971 10.3431 13.7402 12 13.7402Z" stroke="black" stroke-width="1.5" stroke-linecap="round" stroke-linejoin="round"/>
<path d="M19.5 10.7402C19.5 17.4902 12 22.7402 12 22.7402C12 22.7402 4.5 17.4902 4.5 10.7402C4.5 8.75111 5.29018 6.84346 6.6967 5.43693C8.10322 4.03041 10.0109 3.24023 12 3.24023C13.9891 3.24023 15.8968 4.03041 17.3033 5.43693C18.7098 6.84346 19.5 8.75111 19.5 10.7402V10.7402Z" stroke="black" stroke-width="1.5" stroke-linecap="round" stroke-linejoin="round"/>
</svg>
