<svg width="25" height="25" viewBox="0 0 25 25" fill="none" xmlns="http://www.w3.org/2000/svg">
<path d="M12.5 13.7402C14.1569 13.7402 15.5 12.3971 15.5 10.7402C15.5 9.08338 14.1569 7.74023 12.5 7.74023C10.8431 7.74023 9.5 9.08338 9.5 10.7402C9.5 12.3971 10.8431 13.7402 12.5 13.7402Z" stroke="black" stroke-width="1.5" stroke-linecap="round" stroke-linejoin="round"/>
<path d="M20 10.7402C20 17.4902 12.5 22.7402 12.5 22.7402C12.5 22.7402 5 17.4902 5 10.7402C5 8.75111 5.79018 6.84346 7.1967 5.43693C8.60322 4.03041 10.5109 3.24023 12.5 3.24023C14.4891 3.24023 16.3968 4.03041 17.8033 5.43693C19.2098 6.84346 20 8.75111 20 10.7402V10.7402Z" stroke="black" stroke-width="1.5" stroke-linecap="round" stroke-linejoin="round"/>
</svg>
